# xmcd CD database file
#
# Track frame offsets:
#	150
#	14672
#	30332
#	36720
#	69602
#	83177
#	117815
#	143095
#	156425
#	168117
#	177430
#	190615
#	199667
#	208947
#	224342
#	231985
#	243120
#
# Disc length: 3454 seconds
#
# Revision: 2
# Processed by: cddbd v1.4b41PL1 Copyright (c) Steve Scherf et al.
# Submitted via: Feurio! 1.52 - http://www.feurio.com
#
DISCID=f20d7c11
DTITLE=Philharmonische Cellisten Köln - Cello-Party
DYEAR=1900
DGENRE=
TTITLE0=Wagenseil, Suite: Vivace
TTITLE1=Larghetto
TTITLE2=Vivace
TTITLE3=Franz Lachner, Elegie: Andante
TTITLE4=Allegretto
TTITLE5=Allegretto non troppo, ma agitato
TTITLE6=Reinhold Glière, Ballade
TTITLE7=Manuel de Falla, Dansa del Molinero
TTITLE8=Isaac Albéniz, Castilla
TTITLE9=Jean Francaix, Sérénade comique
TTITLE10=Alberto Ginastera, Cancion al Arbol del Olvido
TTITLE11=Darius Milhaud, Brazileira
TTITLE12=Tijuca
TTITLE13=Werner Thomas, Kleine Eisenbahn
TTITLE14=Wilfried Hiller, Schildkröten-Boogie
TTITLE15=Alexandre Tansman, Blues
TTITLE16=Wilhelm Kaiser-Lindemann, Bossa nova philharmonica
EXTD=
EXTT0=
EXTT1=
EXTT2=
EXTT3=
EXTT4=
EXTT5=
EXTT6=
EXTT7=
EXTT8=
EXTT9=
EXTT10=
EXTT11=
EXTT12=
EXTT13=
EXTT14=
EXTT15=
EXTT16=
PLAYORDER=
